<?xml version="1.0" encoding="utf-8"?>
<!-- Generator: Adobe Illustrator 17.1.0, SVG Export Plug-In . SVG Version: 6.00 Build 0)  -->
<!DOCTYPE svg PUBLIC "-//W3C//DTD SVG 1.1//EN" "http://www.w3.org/Graphics/SVG/1.1/DTD/svg11.dtd">
<svg version="1.1" id="Layer_1" xmlns="http://www.w3.org/2000/svg" xmlns:xlink="http://www.w3.org/1999/xlink" x="0px" y="0px"
	 viewBox="0 0 400 300" enable-background="new 0 0 400 300" xml:space="preserve">
<g>
	<path fill="#FFFFFF" d="M120.57,168.278v12.6c0,12,1.4,14,16.2,15.4v6.8H77.17v-6.8c17-1.4,18-4.2,18-16.4v-11.6H44.371v-8.2
		c21.6-30.599,42.799-59.398,61.799-82.798h14.4v79.599h18v11.399H120.57z M95.17,104.479h-0.4c-9.6,13.2-22.4,31.6-35.4,52.399
		h35.8V104.479z"/>
	<path fill="#FFFFFF" d="M235.569,140.679c0,29.199-10.6,64.798-44.199,64.798c-33.599,0-44.399-35.799-44.399-64.599
		c0-29.6,11.399-64.799,44.399-64.799C224.97,76.08,235.569,111.68,235.569,140.679z M174.371,140.079
		c0,26.999,4.2,57.199,17.4,57.199c13.199,0,16.6-29.2,16.6-56.999c0-28.2-4.2-56-17.2-56
		C177.57,84.28,174.371,113.279,174.371,140.079z"/>
	<path fill="#FFFFFF" d="M320.57,168.278v12.6c0,12,1.399,14,16.199,15.4v6.8h-59.599v-6.8c16.999-1.4,17.999-4.2,17.999-16.4v-11.6
		h-50.799v-8.2c21.6-30.599,42.799-59.398,61.799-82.798h14.4v79.599h17.999v11.399H320.57z M295.17,104.479h-0.399
		c-9.6,13.2-22.399,31.6-35.399,52.399h35.799V104.479z"/>
</g>
<g>
</g>
<g>
</g>
<g>
</g>
<g>
</g>
<g>
</g>
<g>
</g>
<g>
</g>
<g>
</g>
<g>
</g>
<g>
</g>
<g>
</g>
<g>
</g>
<g>
</g>
<g>
</g>
<g>
</g>
</svg>
